<svg width="23" height="24" viewBox="0 0 23 24" fill="none" xmlns="http://www.w3.org/2000/svg">
<g clip-path="url(#clip0_177_2547)">
<path d="M11.5 1.3335C9.47823 1.3335 7.50187 1.95909 5.82084 3.13115C4.1398 4.30322 2.82959 5.96913 2.0559 7.91821C1.2822 9.86728 1.07977 12.012 1.47419 14.0811C1.86862 16.1503 2.84219 18.0509 4.2718 19.5426C5.7014 21.0344 7.52282 22.0503 9.50574 22.4619C11.4887 22.8734 13.544 22.6622 15.4119 21.8549C17.2797 21.0475 18.8762 19.6804 19.9995 17.9262C21.1227 16.1721 21.7222 14.1098 21.7222 12.0002C21.7222 9.17119 20.6452 6.45808 18.7282 4.45769C16.8112 2.4573 14.2111 1.3335 11.5 1.3335ZM16.2406 18.1068C15.3312 18.698 14.3031 19.0619 13.2367 19.17C12.1702 19.278 11.0943 19.1274 10.0929 18.7298C9.09147 18.3322 8.19169 17.6985 7.46382 16.878C6.73595 16.0576 6.1997 15.0726 5.89694 14.0002H3.73111C3.56166 14.0002 3.39916 13.9299 3.27935 13.8049C3.15953 13.6799 3.09222 13.5103 3.09222 13.3335C3.09222 13.1567 3.15953 12.9871 3.27935 12.8621C3.39916 12.7371 3.56166 12.6668 3.73111 12.6668H5.64778C5.64778 12.4335 5.61583 12.1935 5.61583 11.9535V11.3335H3.69916C3.52972 11.3335 3.36722 11.2633 3.2474 11.1382C3.12759 11.0132 3.06028 10.8436 3.06028 10.6668C3.06028 10.49 3.12759 10.3204 3.2474 10.1954C3.36722 10.0704 3.52972 10.0002 3.69916 10.0002H5.87139C6.16062 8.91745 6.68746 7.91987 7.4102 7.08644C8.13293 6.25301 9.0317 5.60661 10.0353 5.19845C11.039 4.79028 12.1199 4.63155 13.1925 4.73483C14.2651 4.83812 15.2999 5.20057 16.215 5.7935C16.3842 5.91505 16.5021 6.09999 16.544 6.30986C16.5859 6.51974 16.5487 6.7384 16.4401 6.92039C16.3315 7.10238 16.1599 7.23369 15.9609 7.28704C15.7619 7.34039 15.5509 7.31166 15.3717 7.20683C14.6995 6.77203 13.9432 6.49841 13.1574 6.40572C12.3716 6.31303 11.5758 6.40358 10.8276 6.67084C10.0794 6.9381 9.39745 7.3754 8.83092 7.95115C8.26439 8.52691 7.82745 9.22676 7.55166 10.0002H13.5317C13.7011 10.0002 13.8636 10.0704 13.9834 10.1954C14.1032 10.3204 14.1706 10.49 14.1706 10.6668C14.1706 10.8436 14.1032 11.0132 13.9834 11.1382C13.8636 11.2633 13.7011 11.3335 13.5317 11.3335H7.23861C7.1832 11.7761 7.1832 12.2243 7.23861 12.6668H13.5125C13.6819 12.6668 13.8444 12.7371 13.9643 12.8621C14.0841 12.9871 14.1514 13.1567 14.1514 13.3335C14.1514 13.5103 14.0841 13.6799 13.9643 13.8049C13.8444 13.9299 13.6819 14.0002 13.5125 14.0002H7.58361C7.87238 14.7609 8.31811 15.4459 8.88916 16.0066C9.46021 16.5673 10.1426 16.9899 10.8878 17.2444C11.633 17.499 12.4227 17.5792 13.201 17.4794C13.9792 17.3795 14.7269 17.1021 15.3908 16.6668C15.4798 16.6086 15.5788 16.5692 15.6823 16.551C15.7858 16.5327 15.8918 16.5359 15.9941 16.5603C16.0965 16.5848 16.1932 16.63 16.2788 16.6935C16.3644 16.7569 16.4371 16.8374 16.4929 16.9302C16.5487 17.023 16.5864 17.1263 16.6039 17.2343C16.6215 17.3424 16.6184 17.4529 16.595 17.5597C16.5715 17.6665 16.5282 17.7674 16.4674 17.8567C16.4066 17.946 16.3295 18.0219 16.2406 18.0802V18.1068Z" fill="black"/>
</g>
<defs>
<clipPath id="clip0_177_2547">
<rect width="23" height="24" fill="white"/>
</clipPath>
</defs>
</svg>
