<svg width="26" height="26" viewBox="0 0 26 26" fill="none" xmlns="http://www.w3.org/2000/svg">
<path d="M13.0527 5.00011C14.3129 5.00011 15.4702 5.52748 16.3395 6.49284C17.2087 7.45373 17.7334 8.84366 17.7334 10.3587C17.7334 11.9677 17.111 13.3755 16.1389 14.3587L15.4445 15.0291L16.4526 15.2347C19.1427 15.7665 20.4338 16.8838 21.1719 18.5956C21.8766 20.1911 21.9743 22.3855 22 25H4C4.01029 22.3766 4.02572 20.1151 4.66867 18.4972C5.35791 16.7364 6.61809 15.6235 9.50364 15.1274L10.5272 14.9621L9.8637 14.2604C8.95328 13.2816 8.38234 11.9096 8.38234 10.3498C8.38234 8.83473 8.91213 7.44926 9.7814 6.49284C10.6455 5.52301 11.8028 4.99117 13.0527 5.00011Z" fill="black"/>
</svg>
