<svg width="32" height="32" viewBox="0 0 32 32" fill="none" xmlns="http://www.w3.org/2000/svg">
<path d="M17.3333 17.3332H20C20.3536 17.3332 20.6928 17.4736 20.9428 17.7237C21.1929 17.9737 21.3333 18.3129 21.3333 18.6665C21.3333 19.0201 21.1929 19.3593 20.9428 19.6093C20.6928 19.8594 20.3536 19.9998 20 19.9998H16C15.8248 20.0004 15.6511 19.9662 15.4891 19.8994C15.3271 19.8326 15.1799 19.7344 15.056 19.6105C14.9321 19.4866 14.8339 19.3394 14.7671 19.1774C14.7003 19.0154 14.6661 18.8417 14.6667 18.6665V13.3332C14.6667 12.9795 14.8071 12.6404 15.0572 12.3904C15.3072 12.1403 15.6464 11.9998 16 11.9998C16.3536 11.9998 16.6928 12.1403 16.9428 12.3904C17.1929 12.6404 17.3333 12.9795 17.3333 13.3332V17.3332ZM7.82533 11.8145C7.52068 11.6732 7.25651 11.4575 7.05719 11.1872C6.85787 10.9169 6.72981 10.6008 6.68482 10.268C6.63984 9.93525 6.67938 9.59649 6.79979 9.283C6.92021 8.96951 7.11762 8.69139 7.37383 8.47428C7.63003 8.25718 7.93678 8.10809 8.26578 8.04075C8.59478 7.97342 8.93544 7.99001 9.25634 8.089C9.57724 8.18799 9.86805 8.36619 10.1019 8.60717C10.3358 8.84814 10.5053 9.14413 10.5947 9.46784C11.0752 9.18527 11.5772 8.94096 12.096 8.73717C11.5129 8.33197 11.0744 7.75115 10.8444 7.07933C10.6145 6.40752 10.6051 5.67982 10.8176 5.00229C11.0301 4.32475 11.4534 3.73278 12.0258 3.31263C12.5983 2.89248 13.2899 2.66611 14 2.6665H18C18.7101 2.66611 19.4017 2.89248 19.9742 3.31263C20.5466 3.73278 20.9699 4.32475 21.1824 5.00229C21.3949 5.67982 21.3855 6.40752 21.1556 7.07933C20.9256 7.75115 20.4871 8.33197 19.904 8.73717C20.424 8.9425 20.9267 9.1865 21.4053 9.46784C21.4947 9.14413 21.6642 8.84814 21.8981 8.60717C22.1319 8.36619 22.4228 8.18799 22.7437 8.089C23.0646 7.99001 23.4052 7.97342 23.7342 8.04075C24.0632 8.10809 24.37 8.25718 24.6262 8.47428C24.8824 8.69139 25.0798 8.96951 25.2002 9.283C25.3206 9.59649 25.3602 9.93525 25.3152 10.268C25.2702 10.6008 25.1421 10.9169 24.9428 11.1872C24.7435 11.4575 24.4793 11.6732 24.1747 11.8145C25.4785 13.3703 26.3113 15.2658 26.5754 17.2785C26.8394 19.2911 26.5237 21.3373 25.6652 23.1768C24.8068 25.0162 23.4413 26.5726 21.7292 27.663C20.017 28.7534 18.0292 29.3326 15.9993 29.3326C13.9694 29.3326 11.9817 28.7534 10.2695 27.663C8.55734 26.5726 7.19186 25.0162 6.33343 23.1768C5.47499 21.3373 5.15925 19.2911 5.42328 17.2785C5.68731 15.2658 6.52149 13.3703 7.82533 11.8145ZM16 26.6665C18.1217 26.6665 20.1566 25.8237 21.6569 24.3234C23.1571 22.8231 24 20.7882 24 18.6665C24 16.5448 23.1571 14.5099 21.6569 13.0097C20.1566 11.5094 18.1217 10.6665 16 10.6665C13.8783 10.6665 11.8434 11.5094 10.3431 13.0097C8.84285 14.5099 8 16.5448 8 18.6665C8 20.7882 8.84285 22.8231 10.3431 24.3234C11.8434 25.8237 13.8783 26.6665 16 26.6665ZM14 5.33317C13.8232 5.33317 13.6536 5.40341 13.5286 5.52843C13.4036 5.65346 13.3333 5.82303 13.3333 5.99984C13.3333 6.17665 13.4036 6.34622 13.5286 6.47124C13.6536 6.59627 13.8232 6.6665 14 6.6665H18C18.1768 6.6665 18.3464 6.59627 18.4714 6.47124C18.5964 6.34622 18.6667 6.17665 18.6667 5.99984C18.6667 5.82303 18.5964 5.65346 18.4714 5.52843C18.3464 5.40341 18.1768 5.33317 18 5.33317H14Z" fill="black"/>
</svg>
