<svg width="23" height="20" viewBox="0 0 23 20" fill="none" xmlns="http://www.w3.org/2000/svg">
<path d="M18.0721 0.644531C19.7162 0.644531 20.5383 1.35937 20.5383 2.07422C20.5383 2.78906 19.7162 3.50391 18.8941 3.50391C20.5383 3.50391 21.3604 4.21875 21.3604 4.93359C21.3604 5.64844 20.5383 6.36328 19.7162 6.36328C21.3604 6.36328 22.1824 7.07813 22.1824 7.79297C22.1824 8.50781 21.3559 9.21875 20.5338 9.21875C22.1779 9.21875 23 9.92969 23 10.6445C23 11.3594 22.1779 12.0742 21.3559 12.0742H14.7838C15.1926 13.5039 15.6059 14.9297 15.6059 15.6445C15.6059 17.0742 14.7838 18.5 14.375 18.8594C14.366 18.8672 13.9662 19.2148 13.1441 19.2148C11.9133 19.2148 11.9133 18.1445 11.9133 18.1445C11.9133 18.125 11.5045 16.3594 11.5045 15.6445C11.5045 14.9297 9.86035 12.0742 9.03828 11.3594L8.21621 11.0039V1.00391L9.03828 0.648438H18.0721V0.644531ZM6.65293 0L7.39414 1.35937V10.6445L6.57207 11.3594H0.112305C0.0449219 10.8906 0 10.4141 0 9.92969C0 5.67578 2.68184 1.96875 6.65293 0Z" fill="#E72626"/>
</svg>
