<svg width="29" height="23" viewBox="0 0 29 23" fill="none" xmlns="http://www.w3.org/2000/svg">
<path d="M27.9468 10.8457C27.9177 11.0784 27.8773 11.2785 27.8275 11.4659C27.7137 11.8945 27.5425 12.2931 27.2659 12.9288L27.265 12.9308C27.1769 13.1333 27.0796 13.3568 26.9751 13.6042C26.2983 15.2061 25.3057 16.663 24.053 17.8911C22.8003 19.1192 21.312 20.0945 19.6727 20.7602C18.0333 21.4259 16.2756 21.7688 14.5 21.7688C12.7244 21.7688 10.9667 21.4259 9.32733 20.7602C7.688 20.0945 6.19973 19.1192 4.94701 17.8911C3.69434 16.663 2.70174 15.2061 2.0249 13.6042C1.92028 13.3566 1.82296 13.1329 1.73483 12.9304L1.73414 12.9288C1.4575 12.2931 1.28632 11.8945 1.17247 11.4659C1.12266 11.2784 1.08234 11.0784 1.05325 10.8457H27.9468Z" stroke="black" stroke-width="2"/>
<mask id="path-2-inside-1_181_2714" fill="white">
<path d="M15.3854 0.0195469C15.6426 0.0946883 15.7903 0.364632 15.7154 0.622504L15.7129 0.630904L15.7054 0.657038L15.6768 0.757984C15.6521 0.845432 15.6172 0.971037 15.5762 1.12284C15.494 1.42696 15.3882 1.83395 15.2924 2.24895C15.196 2.66695 15.1126 3.08044 15.072 3.40177C15.0522 3.55871 15.0449 3.67699 15.0471 3.75597C15.2155 3.92203 15.3923 4.10328 15.5199 4.29053C15.6772 4.5213 15.8054 4.8269 15.7224 5.18852C15.689 5.33376 15.5896 5.55224 15.4963 5.72437C15.4454 5.81827 15.3857 5.91819 15.3216 6.00744C15.2663 6.08453 15.1751 6.20059 15.0534 6.28011C15.022 6.30058 14.9553 6.36909 14.992 6.62948C15.0264 6.87339 15.1367 7.11924 15.1974 7.21441L15.4586 7.62417L14.6413 8.14801L14.38 7.73825C14.2514 7.53642 14.0871 7.15972 14.0315 6.76566C13.979 6.39312 14.0054 5.81879 14.5035 5.47875C14.5086 5.47289 14.519 5.46052 14.5344 5.43903C14.5673 5.3933 14.6055 5.33101 14.6439 5.26C14.6819 5.18998 14.716 5.11913 14.7417 5.05971C14.7633 5.00964 14.7731 4.9811 14.7761 4.97229C14.7775 4.96638 14.7791 4.95994 14.7756 4.94723C14.7708 4.9297 14.7571 4.89516 14.719 4.83927C14.6357 4.71706 14.498 4.57775 14.2874 4.37141C14.1763 4.26263 14.1319 4.13284 14.1117 4.05429C14.0895 3.96776 14.081 3.87956 14.078 3.80154C14.072 3.6448 14.0865 3.46308 14.1097 3.27966C14.1565 2.90886 14.2486 2.45735 14.3474 2.02964C14.4468 1.59893 14.5559 1.1795 14.6398 0.868615C14.6819 0.712923 14.7178 0.583886 14.7432 0.493567L14.7731 0.38852L14.7811 0.360529L14.7832 0.353156C14.8582 0.0952959 15.1282 -0.0555963 15.3854 0.0195469Z"/>
<path d="M11.8351 0.622504C11.91 0.364632 11.7623 0.0946883 11.5051 0.0195469C11.248 -0.0555963 10.9787 0.0925261 10.9038 0.350387L10.9008 0.360529L10.8928 0.38852L10.863 0.493567C10.8375 0.583886 10.8016 0.712923 10.7596 0.868615C10.6756 1.1795 10.5665 1.59893 10.4671 2.02964C10.3684 2.45735 10.2762 2.90886 10.2294 3.27966C10.2063 3.46308 10.1918 3.6448 10.1977 3.80154C10.2007 3.87956 10.2092 3.96776 10.2315 4.05429C10.2516 4.13284 10.2961 4.26263 10.4071 4.37141C10.6178 4.57775 10.7555 4.71706 10.8387 4.83927C10.8768 4.89516 10.8906 4.9297 10.8954 4.94723C10.8988 4.95994 10.8981 4.96432 10.8968 4.97023C10.8938 4.97904 10.8831 5.00964 10.8614 5.05971C10.8357 5.11913 10.8016 5.18998 10.7637 5.26C10.7252 5.33101 10.687 5.3933 10.6542 5.43903C10.6388 5.46052 10.6284 5.47289 10.6233 5.47875C10.1252 5.81879 10.0987 6.39312 10.1512 6.76566C10.2068 7.15972 10.3711 7.53642 10.4998 7.73825L10.761 8.14801L11.5784 7.62417L11.3171 7.21441C11.2565 7.11924 11.1461 6.87339 11.1118 6.62948C11.075 6.36909 11.1418 6.30058 11.1731 6.28011C11.2949 6.20059 11.386 6.08453 11.4414 6.00744C11.5055 5.91819 11.5652 5.81827 11.6161 5.72437C11.7093 5.55224 11.8087 5.33376 11.8421 5.18852C11.9252 4.8269 11.797 4.5213 11.6397 4.29053C11.5121 4.10328 11.3353 3.92203 11.1668 3.75597C11.1646 3.67699 11.172 3.55871 11.1918 3.40177C11.2323 3.08044 11.3157 2.66695 11.4122 2.24895C11.508 1.83395 11.6138 1.42696 11.6959 1.12284C11.7369 0.971037 11.7719 0.845432 11.7965 0.757984L11.8252 0.657038L11.8327 0.630904L11.8351 0.622504Z"/>
<path d="M7.95485 0.622504L7.95242 0.630904L7.94491 0.657038L7.91625 0.757984C7.89161 0.845432 7.85666 0.971037 7.81566 1.12284C7.73353 1.42696 7.62772 1.83395 7.53193 2.24895C7.43544 2.66695 7.35209 3.08044 7.31153 3.40177C7.29172 3.55871 7.28436 3.67699 7.28657 3.75597C7.45503 3.92203 7.63181 4.10328 7.75942 4.29053C7.9167 4.5213 8.04491 4.8269 7.96185 5.18852C7.92848 5.33376 7.82907 5.55224 7.73579 5.72437C7.68491 5.81827 7.62521 5.91819 7.56111 6.00744C7.50573 6.08453 7.41463 6.20059 7.29285 6.28011C7.26151 6.30058 7.19477 6.36909 7.23149 6.62948C7.26589 6.87339 7.37619 7.11924 7.43687 7.21441L7.69809 7.62417L6.88074 8.14801L6.61951 7.73825C6.49085 7.53642 6.32656 7.15972 6.27098 6.76566C6.21844 6.39312 6.24491 5.81879 6.74299 5.47875C6.74811 5.47289 6.7585 5.46052 6.77393 5.43903C6.80678 5.3933 6.84495 5.33101 6.88343 5.26C6.92137 5.18998 6.95549 5.11913 6.98117 5.05971C7.0028 5.00964 7.0126 4.9811 7.01563 4.97229C7.01698 4.96638 7.01858 4.95994 7.01511 4.94723C7.01033 4.9297 6.99658 4.89516 6.95849 4.83927C6.8752 4.71706 6.73751 4.57775 6.52687 4.37141C6.41581 4.26263 6.37139 4.13284 6.35121 4.05429C6.32898 3.96776 6.32046 3.87956 6.31749 3.80154C6.31152 3.6448 6.32599 3.46308 6.34914 3.27966C6.39594 2.90886 6.48812 2.45735 6.58684 2.02964C6.68626 1.59893 6.79536 1.1795 6.87932 0.868615C6.92137 0.712923 6.95727 0.583886 6.98272 0.493567L7.01254 0.38852L7.02059 0.360529L7.02272 0.353156C7.09766 0.0952959 7.36771 -0.0555963 7.62489 0.0195469C7.88206 0.0946883 8.02978 0.364648 7.95485 0.622504Z"/>
</mask>
<path d="M15.9114 -1.82931L15.4449 -1.9626L14.1215 2.66891L14.588 2.8022L15.9114 -1.82931ZM12.0449 -1.82533L11.5792 -1.96139L10.2283 2.66216L10.694 2.79822L12.0449 -1.82533ZM8.15089 -1.82931L7.68442 -1.9626L6.36102 2.66891L6.82748 2.8022L8.15089 -1.82931ZM15.7154 0.622504L11.0899 -0.721695L11.0886 -0.717379L15.7154 0.622504ZM15.3854 0.0195469L14.0345 4.6431L14.0345 4.6431L15.3854 0.0195469ZM15.7129 0.630904L11.0862 -0.708983L11.0834 -0.699555L15.7129 0.630904ZM15.7054 0.657038L11.0759 -0.673421L11.0738 -0.665993L11.0717 -0.658559L15.7054 0.657038ZM15.6768 0.757984L11.043 -0.557616L11.0404 -0.548278L15.6768 0.757984ZM15.5762 1.12284L20.2264 2.37881L20.2264 2.37872L15.5762 1.12284ZM15.2924 2.24895L19.9859 3.33235L19.9859 3.33234L15.2924 2.24895ZM15.072 3.40177L19.851 4.00495L19.851 4.0049L15.072 3.40177ZM15.0471 3.75597L10.2321 3.89043L10.2862 5.82661L11.6656 7.18636L15.0471 3.75597ZM15.5199 4.29053L11.5395 7.00321L11.5395 7.00323L15.5199 4.29053ZM15.7224 5.18852L11.0277 4.11019L11.0277 4.11021L15.7224 5.18852ZM15.4963 5.72437L19.7313 8.01938L19.7313 8.01937L15.4963 5.72437ZM15.3216 6.00744L19.2339 8.81749L19.2339 8.81746L15.3216 6.00744ZM15.0534 6.28011L17.6871 10.3132L17.6872 10.3132L15.0534 6.28011ZM14.992 6.62948L19.7617 5.95685L19.7617 5.9568L14.992 6.62948ZM15.1974 7.21441L19.2591 4.62501L19.259 4.62499L15.1974 7.21441ZM15.4586 7.62417L18.0578 11.6796L22.1035 9.0867L19.5203 5.03477L15.4586 7.62417ZM14.6413 8.14801L10.5796 10.7374L13.1752 14.8089L17.2404 12.2035L14.6413 8.14801ZM14.38 7.73825L18.4417 5.14887L18.4417 5.14882L14.38 7.73825ZM14.0315 6.76566L18.8012 6.09299L18.8012 6.09299L14.0315 6.76566ZM14.5035 5.47875L17.2194 9.45695L17.7264 9.11086L18.1303 8.6487L14.5035 5.47875ZM14.5344 5.43903L10.6223 2.62881L10.6218 2.62945L14.5344 5.43903ZM14.6439 5.26L18.8789 7.55515L18.8789 7.55501L14.6439 5.26ZM14.7417 5.05971L10.32 3.14895L10.3199 3.14912L14.7417 5.05971ZM14.7761 4.97229L19.3324 6.53524L19.4141 6.29704L19.4705 6.05161L14.7761 4.97229ZM14.7756 4.94723L10.1288 6.21565L10.1289 6.21609L14.7756 4.94723ZM14.719 4.83927L10.7386 7.55193L10.7387 7.55212L14.719 4.83927ZM14.2874 4.37141L10.9166 7.81239L10.9167 7.81243L14.2874 4.37141ZM14.1117 4.05429L18.7771 2.85573L18.7771 2.85564L14.1117 4.05429ZM14.078 3.80154L9.26462 3.98485L9.26462 3.98485L14.078 3.80154ZM14.1097 3.27966L18.8886 3.88283L18.8886 3.88278L14.1097 3.27966ZM14.3474 2.02964L19.0408 3.11303L19.0408 3.113L14.3474 2.02964ZM14.6398 0.868615L19.2901 2.12456L19.2901 2.12454L14.6398 0.868615ZM14.7432 0.493567L10.1095 -0.822042L10.1069 -0.81277L14.7432 0.493567ZM14.7731 0.38852L10.1436 -0.942163L10.1415 -0.934628L10.1393 -0.927086L14.7731 0.38852ZM14.7811 0.360529L10.1537 -0.977323L10.1517 -0.970155L14.7811 0.360529ZM14.7832 0.353156L10.1578 -0.991219L10.1559 -0.984693L14.7832 0.353156ZM11.5051 0.0195469L10.1542 4.6431L10.1542 4.6431L11.5051 0.0195469ZM11.8351 0.622504L7.20959 -0.721695L7.208 -0.716212L11.8351 0.622504ZM10.9038 0.350387L6.27831 -0.993989L6.27653 -0.987807L10.9038 0.350387ZM10.9008 0.360529L6.27359 -0.977667L6.27143 -0.970155L10.9008 0.360529ZM10.8928 0.38852L6.26338 -0.942163L6.26123 -0.934675L6.2591 -0.92718L10.8928 0.38852ZM10.863 0.493567L6.22926 -0.822136L6.22662 -0.81277L10.863 0.493567ZM10.7596 0.868615L15.4098 2.12456L15.4098 2.12454L10.7596 0.868615ZM10.4671 2.02964L15.1606 3.11303L15.1606 3.113L10.4671 2.02964ZM10.2294 3.27966L15.0084 3.88283L15.0084 3.88278L10.2294 3.27966ZM10.1977 3.80154L5.38437 3.98485L5.38437 3.98485L10.1977 3.80154ZM10.2315 4.05429L14.8968 2.85573L14.8968 2.85564L10.2315 4.05429ZM10.4071 4.37141L7.03638 7.81239L7.03642 7.81243L10.4071 4.37141ZM10.8387 4.83927L6.85833 7.55193L6.85846 7.55212L10.8387 4.83927ZM10.8954 4.94723L6.2485 6.21565L6.24862 6.21609L10.8954 4.94723ZM10.8968 4.97023L15.453 6.53319L15.5347 6.29498L15.5912 6.04955L10.8968 4.97023ZM10.8614 5.05971L6.43974 3.14895L6.43967 3.14912L10.8614 5.05971ZM10.7637 5.26L14.9986 7.55515L14.9987 7.55501L10.7637 5.26ZM10.6542 5.43903L6.74204 2.62881L6.74158 2.62945L10.6542 5.43903ZM10.6233 5.47875L13.3392 9.45695L13.8461 9.11086L14.25 8.6487L10.6233 5.47875ZM10.1512 6.76566L14.9209 6.09299L14.9209 6.09299L10.1512 6.76566ZM10.4998 7.73825L14.5615 5.14887L14.5614 5.14882L10.4998 7.73825ZM10.761 8.14801L6.69931 10.7374L9.29493 14.8089L13.3601 12.2035L10.761 8.14801ZM11.5784 7.62417L14.1775 11.6796L18.2232 9.0867L15.64 5.03477L11.5784 7.62417ZM11.3171 7.21441L15.3788 4.62501L15.3788 4.62499L11.3171 7.21441ZM11.1118 6.62948L15.8814 5.95685L15.8814 5.9568L11.1118 6.62948ZM11.1731 6.28011L13.8069 10.3132L13.8069 10.3132L11.1731 6.28011ZM11.4414 6.00744L15.3536 8.81749L15.3537 8.81746L11.4414 6.00744ZM11.6161 5.72437L15.851 8.01938L15.8511 8.01937L11.6161 5.72437ZM11.8421 5.18852L7.14748 4.11019L7.14748 4.11021L11.8421 5.18852ZM11.6397 4.29053L7.65927 7.00321L7.65929 7.00323L11.6397 4.29053ZM11.1668 3.75597L6.35183 3.89043L6.4059 5.82661L7.78531 7.18636L11.1668 3.75597ZM11.1918 3.40177L15.9707 4.00495L15.9708 4.0049L11.1918 3.40177ZM11.4122 2.24895L16.1056 3.33235L16.1056 3.33234L11.4122 2.24895ZM11.6959 1.12284L16.3462 2.37881L16.3462 2.37872L11.6959 1.12284ZM11.7965 0.757984L7.16276 -0.557616L7.16013 -0.548278L11.7965 0.757984ZM11.8252 0.657038L7.19579 -0.673796L7.1936 -0.666181L7.19143 -0.658559L11.8252 0.657038ZM11.8327 0.630904L7.20557 -0.707815L7.2033 -0.699931L11.8327 0.630904ZM7.95485 0.622504L3.32933 -0.721679L3.32775 -0.716212L7.95485 0.622504ZM7.95242 0.630904L3.32531 -0.707815L3.32293 -0.699555L7.95242 0.630904ZM7.94491 0.657038L3.31542 -0.673421L3.31329 -0.665993L3.31118 -0.658559L7.94491 0.657038ZM7.91625 0.757984L3.28251 -0.557616L3.27988 -0.548278L7.91625 0.757984ZM7.81566 1.12284L12.4659 2.37878L12.4659 2.37878L7.81566 1.12284ZM7.53193 2.24895L2.83847 1.16556L2.83847 1.16557L7.53193 2.24895ZM7.31153 3.40177L12.0905 4.00495L12.0905 4.0049L7.31153 3.40177ZM7.28657 3.75597L2.47158 3.89054L2.52569 5.82667L3.90507 7.18638L7.28657 3.75597ZM7.75942 4.29053L3.77902 7.00321L3.77903 7.00323L7.75942 4.29053ZM7.96185 5.18852L12.6565 6.26688L12.6565 6.26684L7.96185 5.18852ZM7.73579 5.72437L11.9708 8.01938L11.9708 8.01937L7.73579 5.72437ZM7.56111 6.00744L11.4734 8.81749L11.4734 8.81746L7.56111 6.00744ZM7.29285 6.28011L4.6591 2.24705L4.65899 2.24712L7.29285 6.28011ZM7.23149 6.62948L2.46182 7.30213L2.46182 7.30215L7.23149 6.62948ZM7.43687 7.21441L11.4986 4.62502L11.4985 4.62499L7.43687 7.21441ZM7.69809 7.62417L10.2972 11.6796L14.3429 9.08671L11.7598 5.03478L7.69809 7.62417ZM6.88074 8.14801L2.81906 10.7374L5.41469 14.8089L9.4799 12.2035L6.88074 8.14801ZM6.61951 7.73825L10.6812 5.14885L10.6812 5.14885L6.61951 7.73825ZM6.27098 6.76566L11.0407 6.09299L11.0407 6.09299L6.27098 6.76566ZM6.74299 5.47875L9.45891 9.45695L9.96584 9.11086L10.3698 8.6487L6.74299 5.47875ZM6.77393 5.43903L10.6862 8.24906L10.6862 8.24905L6.77393 5.43903ZM6.88343 5.26L2.64843 2.965L2.64841 2.96503L6.88343 5.26ZM6.98117 5.05971L2.55943 3.14909L2.55942 3.14912L6.98117 5.05971ZM7.01563 4.97229L11.5716 6.5361L11.6537 6.2968L11.7103 6.05021L7.01563 4.97229ZM7.01511 4.94723L11.662 3.679L11.662 3.67881L7.01511 4.94723ZM6.95849 4.83927L10.9389 2.1266L10.9389 2.12657L6.95849 4.83927ZM6.52687 4.37141L9.89757 0.930392L9.89755 0.930373L6.52687 4.37141ZM6.35121 4.05429L1.68584 5.25286L1.68584 5.25286L6.35121 4.05429ZM6.31749 3.80154L11.1309 3.61834L11.1309 3.61822L6.31749 3.80154ZM6.34914 3.27966L1.57018 2.67651L1.57018 2.67653L6.34914 3.27966ZM6.58684 2.02964L1.89339 0.946253L1.89339 0.946264L6.58684 2.02964ZM6.87932 0.868615L2.22906 -0.387309L2.22906 -0.387305L6.87932 0.868615ZM6.98272 0.493567L2.34898 -0.822042L2.34637 -0.81277L6.98272 0.493567ZM7.01254 0.38852L2.38312 -0.942163L2.38096 -0.934628L2.37881 -0.927086L7.01254 0.38852ZM7.02059 0.360529L2.39323 -0.977323L2.39117 -0.970155L7.02059 0.360529ZM7.02272 0.353156L2.39724 -0.991189L2.39537 -0.984693L7.02272 0.353156ZM7.62489 0.0195469L8.97581 -4.60401L8.97581 -4.60401L7.62489 0.0195469ZM20.3409 1.9667C21.1546 -0.833355 19.5542 -3.78069 16.7363 -4.60401L14.0345 4.6431C11.731 3.97006 10.426 1.56262 11.0899 -0.721694L20.3409 1.9667ZM20.3397 1.97079L20.3421 1.96239L11.0886 -0.717379L11.0862 -0.70898L20.3397 1.97079ZM20.3349 1.9875L20.3424 1.96136L11.0834 -0.699555L11.0759 -0.673421L20.3349 1.9875ZM20.3105 2.07358L20.3392 1.97264L11.0717 -0.658559L11.043 -0.557614L20.3105 2.07358ZM20.2264 2.37872C20.2622 2.24618 20.2925 2.13755 20.3131 2.06425L11.0404 -0.548278C11.0118 -0.446684 10.9721 -0.304103 10.9259 -0.133037L20.2264 2.37872ZM19.9859 3.33234C20.0638 2.99494 20.1533 2.64941 20.2264 2.37881L10.9259 -0.133121C10.8347 0.204504 10.7127 0.672956 10.599 1.16556L19.9859 3.33234ZM19.851 4.0049C19.8607 3.92811 19.9004 3.70254 19.9859 3.33235L10.599 1.16555C10.4915 1.63135 10.3645 2.23276 10.2931 2.79863L19.851 4.0049ZM19.8621 3.62151C19.8666 3.78237 19.8598 3.89558 19.857 3.93684C19.8536 3.98652 19.8503 4.01088 19.851 4.00495L10.2931 2.79858C10.2601 3.05985 10.2199 3.45547 10.2321 3.89043L19.8621 3.62151ZM19.5003 1.57785C19.078 0.958114 18.5877 0.482391 18.4286 0.325582L11.6656 7.18636C11.6967 7.21709 11.7155 7.23593 11.7279 7.24868C11.7401 7.26117 11.7401 7.2615 11.7319 7.25249C11.7239 7.24362 11.702 7.21917 11.6712 7.18107C11.6406 7.14333 11.5943 7.0835 11.5395 7.00321L19.5003 1.57785ZM20.417 6.26684C20.9168 4.09092 20.0603 2.39953 19.5003 1.57782L11.5395 7.00323C11.2941 6.64308 10.6941 5.56288 11.0277 4.11019L20.417 6.26684ZM19.7313 8.01937C19.8655 7.77166 20.2305 7.07856 20.417 6.26682L11.0277 4.11021C11.0733 3.91178 11.1221 3.7673 11.1465 3.69859C11.1739 3.62128 11.1967 3.56662 11.209 3.53811C11.232 3.4849 11.2484 3.45321 11.2613 3.42936L19.7313 8.01937ZM19.2339 8.81746C19.4527 8.51286 19.6189 8.22674 19.7313 8.01938L11.2613 3.42935C11.27 3.4133 11.2844 3.38754 11.3053 3.35334C11.3255 3.32034 11.3599 3.2663 11.4093 3.19742L19.2339 8.81746ZM17.6872 10.3132C18.5875 9.72517 19.104 8.99839 19.2339 8.81749L11.4094 3.19739C11.4409 3.15352 11.5333 3.02675 11.6754 2.87306C11.8122 2.72499 12.057 2.48389 12.4196 2.24707L17.6872 10.3132ZM19.7617 5.9568C19.7994 6.22418 19.8669 6.91427 19.6025 7.77661C19.2849 8.81269 18.6055 9.71341 17.6871 10.3132L12.4196 2.24705C11.4699 2.86728 10.7415 3.81249 10.3918 4.95305C10.0955 5.91985 10.1479 6.77439 10.2223 7.30217L19.7617 5.9568ZM19.259 4.62499C19.3757 4.80799 19.4483 4.95245 19.4831 5.02455C19.525 5.11133 19.559 5.19151 19.5876 5.2668C19.6364 5.39514 19.7155 5.62931 19.7617 5.95685L10.2223 7.30212C10.3613 8.2874 10.7382 9.18031 11.1357 9.80383L19.259 4.62499ZM19.5203 5.03477L19.2591 4.62501L11.1357 9.8038L11.3969 10.2136L19.5203 5.03477ZM17.2404 12.2035L18.0578 11.6796L12.8595 3.56872L12.0421 4.09256L17.2404 12.2035ZM10.3183 10.3276L10.5796 10.7374L18.703 5.55862L18.4417 5.14887L10.3183 10.3276ZM9.26183 7.43834C9.42203 8.57426 9.85316 9.59798 10.3184 10.3277L18.4417 5.14882C18.5812 5.36768 18.648 5.52591 18.681 5.61274C18.7182 5.71052 18.7696 5.86886 18.8012 6.09299L9.26183 7.43834ZM11.7876 1.50055C8.93624 3.44717 9.13564 6.54355 9.26183 7.43834L18.8012 6.09299C18.8305 6.30095 18.8733 6.76098 18.7139 7.35616C18.5304 8.04136 18.0766 8.87175 17.2194 9.45695L11.7876 1.50055ZM10.6218 2.62945C10.6965 2.52555 10.7815 2.41771 10.8767 2.30879L18.1303 8.6487C18.2357 8.52808 18.3416 8.3955 18.4471 8.24862L10.6218 2.62945ZM10.409 2.96486C10.4256 2.93436 10.4483 2.89404 10.4783 2.84493C10.5064 2.7991 10.5543 2.72347 10.6223 2.62881L18.4466 8.24925C18.6345 7.98771 18.7792 7.73897 18.8789 7.55515L10.409 2.96486ZM10.3199 3.14912C10.3378 3.10784 10.3531 3.07499 10.3656 3.04936C10.3783 3.02322 10.3925 2.99542 10.4089 2.965L18.8789 7.55501C18.9836 7.36184 19.0803 7.1628 19.1634 6.97029L10.3199 3.14912ZM10.2199 3.40933C10.2198 3.40948 10.2224 3.40188 10.2258 3.39227C10.2292 3.38239 10.2332 3.3711 10.2376 3.3587C10.2466 3.33367 10.256 3.3083 10.2657 3.28281C10.2852 3.23183 10.3035 3.18713 10.32 3.14895L19.1634 6.97046C19.2452 6.78099 19.2991 6.63242 19.3324 6.53524L10.2199 3.40933ZM10.1289 6.21609C10.0224 5.82618 9.94481 5.3448 9.96368 4.7966C9.98161 4.2757 10.0907 3.85402 10.0818 3.89296L19.4705 6.05161C19.4629 6.08465 19.5735 5.6568 19.5917 5.12802C19.6109 4.57195 19.5323 4.081 19.4224 3.67837L10.1289 6.21609ZM10.7387 7.55212C10.5804 7.31987 10.3062 6.86582 10.1288 6.21565L19.4225 3.67881C19.2355 2.99359 18.9338 2.47046 18.6993 2.12642L10.7387 7.55212ZM10.9167 7.81243C10.965 7.8598 10.9968 7.89118 11.0199 7.91442C11.0433 7.93781 11.0462 7.94126 11.0371 7.93162C11.0284 7.92232 10.9945 7.88587 10.9467 7.82861C10.8988 7.77121 10.8241 7.67746 10.7386 7.55193L18.6994 2.12662C18.291 1.52737 17.7625 1.03271 17.6581 0.930392L10.9167 7.81243ZM9.44636 5.25286C9.56294 5.70667 9.90046 6.81696 10.9166 7.81239L17.6581 0.930429C18.4522 1.70829 18.7009 2.55901 18.7771 2.85573L9.44636 5.25286ZM9.26462 3.98485C9.27483 4.25281 9.30768 4.71313 9.44638 5.25295L18.7771 2.85564C18.8713 3.2224 18.8871 3.50631 18.8914 3.61822L9.26462 3.98485ZM9.3307 2.67649C9.29449 2.9634 9.24403 3.4441 9.26462 3.98485L18.8914 3.61822C18.8964 3.74939 18.8913 3.83761 18.8895 3.86573C18.8874 3.89782 18.8857 3.90579 18.8886 3.88283L9.3307 2.67649ZM9.65391 0.946245C9.54404 1.42221 9.40832 2.06144 9.3307 2.67654L18.8886 3.88278C18.9046 3.75628 18.9532 3.4925 19.0408 3.11303L9.65391 0.946245ZM9.98958 -0.387331C9.89658 -0.0429701 9.77124 0.437934 9.6539 0.946273L19.0408 3.113C19.1223 2.75993 19.2152 2.40197 19.2901 2.12456L9.98958 -0.387331ZM10.1069 -0.81277C10.0774 -0.708179 10.0368 -0.562171 9.98958 -0.387309L19.2901 2.12454C19.327 1.98802 19.3582 1.87595 19.3796 1.7999L10.1069 -0.81277ZM10.1393 -0.927086L10.1095 -0.822039L19.377 1.80917L19.4068 1.70413L10.1393 -0.927086ZM10.1517 -0.970155L10.1436 -0.942163L19.4025 1.7192L19.4105 1.69121L10.1517 -0.970155ZM10.1559 -0.984693L10.1537 -0.977321L19.4085 1.69838L19.4106 1.69101L10.1559 -0.984693ZM16.7363 -4.60401C13.8777 -5.43925 10.9627 -3.76059 10.1578 -0.991218L19.4087 1.69753C18.7537 3.95118 16.3787 5.32806 14.0345 4.6431L16.7363 -4.60401ZM10.1542 4.6431C7.85069 3.97005 6.54577 1.56258 7.20959 -0.721694L16.4606 1.9667C17.2743 -0.833319 15.6739 -3.78068 12.8561 -4.60401L10.1542 4.6431ZM15.5292 1.69476C14.8638 3.98422 12.4629 5.31767 10.1542 4.6431L12.8561 -4.60401C10.033 -5.42886 7.09363 -3.79917 6.27832 -0.993988L15.5292 1.69476ZM15.5281 1.69872L15.531 1.68858L6.27653 -0.987807L6.27359 -0.977665L15.5281 1.69872ZM15.5222 1.7192L15.5303 1.69121L6.27143 -0.970155L6.26338 -0.942163L15.5222 1.7192ZM15.4967 1.80927L15.5265 1.70422L6.2591 -0.92718L6.22927 -0.822133L15.4967 1.80927ZM15.4098 2.12454C15.4467 1.98802 15.4779 1.87595 15.4993 1.7999L6.22662 -0.81277C6.19716 -0.708179 6.15655 -0.562171 6.10932 -0.387309L15.4098 2.12454ZM15.1606 3.113C15.2421 2.75992 15.3349 2.40195 15.4098 2.12456L6.10933 -0.387331C6.01632 -0.04295 5.89098 0.437948 5.77364 0.946273L15.1606 3.113ZM15.0084 3.88278C15.0243 3.75629 15.073 3.49252 15.1606 3.11303L5.77365 0.946245C5.66379 1.42218 5.52807 2.06142 5.45044 2.67654L15.0084 3.88278ZM15.0111 3.61822C15.0161 3.74937 15.0111 3.83758 15.0092 3.8657C15.0071 3.89779 15.0055 3.90577 15.0084 3.88283L5.45044 2.67649C5.41422 2.96345 5.36377 3.44413 5.38437 3.98485L15.0111 3.61822ZM14.8968 2.85564C14.991 3.2224 15.0069 3.50631 15.0111 3.61822L5.38437 3.98485C5.39457 4.25281 5.42743 4.71313 5.56612 5.25295L14.8968 2.85564ZM13.7779 0.930429C14.572 1.70832 14.8206 2.55908 14.8968 2.85573L5.5661 5.25286C5.68267 5.7066 6.02017 6.81693 7.03638 7.81239L13.7779 0.930429ZM14.8192 2.12662C14.4108 1.52736 13.8822 1.03268 13.7778 0.930392L7.03642 7.81243C7.08477 7.8598 7.11653 7.89118 7.13969 7.91443C7.16301 7.93783 7.16591 7.94127 7.15688 7.93164C7.14815 7.92233 7.11421 7.88588 7.06646 7.82863C7.01859 7.77123 6.94388 7.67746 6.85833 7.55193L14.8192 2.12662ZM15.5422 3.67881C15.3552 2.99373 15.0536 2.47062 14.819 2.12642L6.85846 7.55212C6.70005 7.31971 6.42594 6.86568 6.2485 6.21565L15.5422 3.67881ZM15.5912 6.04955C15.6163 5.94044 15.7295 5.46018 15.7131 4.83521C15.6988 4.28967 15.5942 3.86909 15.5421 3.67837L6.24862 6.21609C6.20002 6.03809 6.09677 5.62605 6.08267 5.08736C6.06648 4.46923 6.17866 3.99411 6.20239 3.89091L15.5912 6.04955ZM15.2831 6.97046C15.3611 6.78989 15.4159 6.64148 15.453 6.53319L6.34053 3.40727C6.35391 3.36829 6.37011 3.3229 6.38877 3.27427C6.40639 3.22833 6.42347 3.1866 6.43974 3.14895L15.2831 6.97046ZM14.9987 7.55501C15.1034 7.36176 15.2 7.16272 15.2832 6.97029L6.43967 3.14912C6.45749 3.10788 6.47283 3.07505 6.48529 3.04942C6.498 3.02327 6.51218 2.99546 6.52869 2.965L14.9987 7.55501ZM14.5663 8.24925C14.7542 7.98771 14.899 7.73897 14.9986 7.55515L6.52877 2.96486C6.5453 2.93436 6.56804 2.89404 6.59809 2.84493C6.62613 2.7991 6.67404 2.72347 6.74204 2.62881L14.5663 8.24925ZM14.25 8.6487C14.3552 8.52834 14.4611 8.39578 14.5668 8.24862L6.74158 2.62945C6.8164 2.52526 6.90149 2.41744 6.99646 2.30879L14.25 8.6487ZM14.9209 6.09299C14.9502 6.30094 14.9931 6.76096 14.8337 7.35614C14.6501 8.04135 14.1963 8.87175 13.3392 9.45695L7.90735 1.50054C5.05596 3.44718 5.25538 6.54359 5.38157 7.43834L14.9209 6.09299ZM14.5614 5.14882C14.701 5.36769 14.7677 5.52592 14.8007 5.61276C14.8379 5.71054 14.8893 5.86886 14.9209 6.09299L5.38157 7.43834C5.54177 8.57424 5.97289 9.59796 6.43811 10.3277L14.5614 5.14882ZM14.8227 5.55862L14.5615 5.14887L6.43808 10.3276L6.69931 10.7374L14.8227 5.55862ZM8.9792 3.56872L8.16185 4.09256L13.3601 12.2035L14.1775 11.6796L8.9792 3.56872ZM7.25544 9.8038L7.51667 10.2136L15.64 5.03477L15.3788 4.62501L7.25544 9.8038ZM6.34208 7.30212C6.48103 8.28743 6.85796 9.18034 7.25545 9.80383L15.3788 4.62499C15.4955 4.80798 15.5681 4.95244 15.6028 5.02453C15.6447 5.11131 15.6787 5.19149 15.7074 5.26678C15.7561 5.39512 15.8352 5.62929 15.8814 5.95685L6.34208 7.30212ZM8.53936 2.24705C7.58965 2.86725 6.86124 3.81243 6.51159 4.953C6.21519 5.91982 6.26765 6.77437 6.34208 7.30217L15.8814 5.9568C15.9191 6.2242 15.9866 6.9143 15.7222 7.77665C15.4046 8.81275 14.7252 9.71344 13.8069 10.3132L8.53936 2.24705ZM7.5291 3.19739C7.56061 3.15352 7.65303 3.02675 7.7951 2.87306C7.93199 2.72499 8.1767 2.48389 8.53933 2.24707L13.8069 10.3132C14.7073 9.72517 15.2237 8.99839 15.3536 8.81749L7.5291 3.19739ZM7.38106 3.42935C7.38976 3.4133 7.40415 3.38754 7.42508 3.35334C7.44527 3.32034 7.4796 3.2663 7.52908 3.19742L15.3537 8.81746C15.5724 8.51286 15.7387 8.22674 15.851 8.01938L7.38106 3.42935ZM7.14748 4.11021C7.19305 3.91179 7.24185 3.76732 7.26623 3.69861C7.29366 3.62131 7.31647 3.56664 7.32877 3.53814C7.35173 3.48492 7.36812 3.45322 7.38106 3.42936L15.8511 8.01937C15.9853 7.77162 16.3503 7.07854 16.5367 6.26682L7.14748 4.11021ZM7.65929 7.00323C7.41384 6.64308 6.81381 5.56288 7.14748 4.11019L16.5367 6.26684C17.0365 4.09092 16.1801 2.39953 15.6201 1.57782L7.65929 7.00323ZM7.78531 7.18636C7.81648 7.21709 7.83524 7.23593 7.84769 7.24868C7.85989 7.26117 7.85983 7.2615 7.85165 7.25249C7.84361 7.24362 7.82173 7.21917 7.79091 7.18107C7.76037 7.14333 7.714 7.0835 7.65927 7.00321L15.6201 1.57785C15.1977 0.958114 14.7074 0.482391 14.5483 0.325582L7.78531 7.18636ZM6.41283 2.79858C6.37987 3.05977 6.33968 3.45542 6.35183 3.89043L15.9818 3.62151C15.9863 3.78241 15.9795 3.89564 15.9767 3.93689C15.9733 3.98656 15.97 4.0109 15.9707 4.00495L6.41283 2.79858ZM6.71873 1.16555C6.6112 1.63137 6.48424 2.23278 6.41283 2.79863L15.9708 4.0049C15.9804 3.92809 16.0202 3.70252 16.1056 3.33235L6.71873 1.16555ZM7.04567 -0.133121C6.95448 0.204504 6.83244 0.672956 6.71873 1.16556L16.1056 3.33234C16.1835 2.99494 16.2731 2.64941 16.3462 2.37881L7.04567 -0.133121ZM7.16013 -0.548278C7.13151 -0.446684 7.09185 -0.304103 7.04565 -0.133037L16.3462 2.37872C16.382 2.24618 16.4122 2.13755 16.4329 2.06425L7.16013 -0.548278ZM7.19143 -0.658559L7.16277 -0.557614L16.4302 2.07358L16.4589 1.97264L7.19143 -0.658559ZM7.2033 -0.699931L7.19579 -0.673796L16.4545 1.98787L16.4621 1.96174L7.2033 -0.699931ZM7.208 -0.716212L7.20557 -0.707813L16.4598 1.96962L16.4622 1.96122L7.208 -0.716212ZM12.5795 1.96962L12.582 1.96122L3.32775 -0.716212L3.32531 -0.707813L12.5795 1.96962ZM12.5744 1.9875L12.5819 1.96136L3.32293 -0.699555L3.31542 -0.673421L12.5744 1.9875ZM12.55 2.07358L12.5786 1.97264L3.31118 -0.658559L3.28252 -0.557614L12.55 2.07358ZM12.4659 2.37878C12.5017 2.24621 12.532 2.13756 12.5526 2.06425L3.27988 -0.548278C3.25126 -0.446699 3.2116 -0.304135 3.16541 -0.13309L12.4659 2.37878ZM12.2254 3.33234C12.3033 2.99495 12.3928 2.64942 12.4659 2.37878L3.16541 -0.133094C3.07423 0.204492 2.95218 0.672945 2.83847 1.16556L12.2254 3.33234ZM12.0905 4.0049C12.1002 3.9281 12.1399 3.70253 12.2254 3.33233L2.83847 1.16557C2.73095 1.63136 2.60398 2.23277 2.53257 2.79863L12.0905 4.0049ZM12.1016 3.6214C12.1061 3.78234 12.0993 3.8956 12.0964 3.93686C12.093 3.98655 12.0897 4.0109 12.0905 4.00495L2.53258 2.79858C2.49961 3.05976 2.45942 3.45546 2.47158 3.89054L12.1016 3.6214ZM11.7398 1.57785C11.3175 0.958117 10.8272 0.482406 10.6681 0.325563L3.90507 7.18638C3.93623 7.2171 3.95499 7.23594 3.96743 7.24869C3.97963 7.26117 3.97957 7.2615 3.97139 7.25248C3.96335 7.24362 3.94147 7.21916 3.91065 7.18107C3.88011 7.14332 3.83374 7.0835 3.77902 7.00321L11.7398 1.57785ZM12.6565 6.26684C13.1563 4.09092 12.2998 2.39953 11.7398 1.57782L3.77903 7.00323C3.53358 6.64308 2.93355 5.56288 3.26722 4.11019L12.6565 6.26684ZM11.9708 8.01937C12.1051 7.77162 12.47 7.07856 12.6565 6.26688L3.26723 4.11015C3.31281 3.91175 3.36161 3.76728 3.38598 3.69859C3.41341 3.62128 3.43622 3.56662 3.44852 3.53812C3.47147 3.48492 3.48787 3.45322 3.5008 3.42936L11.9708 8.01937ZM11.4734 8.81746C11.6922 8.51286 11.8584 8.22674 11.9708 8.01938L3.50081 3.42935C3.5095 3.4133 3.52389 3.38754 3.54482 3.35334C3.56501 3.32034 3.59934 3.2663 3.64882 3.19742L11.4734 8.81746ZM9.92661 10.3132C10.827 9.72519 11.3434 8.99841 11.4734 8.81749L3.64884 3.19739C3.68036 3.15351 3.77278 3.02674 3.91486 2.87305C4.05175 2.72497 4.29646 2.48387 4.6591 2.24705L9.92661 10.3132ZM12.0012 5.95683C12.0389 6.22422 12.1063 6.91429 11.842 7.77661C11.5244 8.81266 10.8451 9.71335 9.92672 10.3131L4.65899 2.24712C3.7093 2.86735 2.98094 3.81252 2.63131 4.95305C2.33494 5.91983 2.38739 6.77435 2.46182 7.30213L12.0012 5.95683ZM11.4985 4.62499C11.6152 4.80798 11.6878 4.95243 11.7226 5.02452C11.7644 5.1113 11.7985 5.19148 11.8271 5.26677C11.8759 5.3951 11.955 5.62927 12.0012 5.95681L2.46182 7.30215C2.60078 8.28745 2.97771 9.18034 3.3752 9.80383L11.4985 4.62499ZM11.7598 5.03478L11.4986 4.62502L3.37517 9.80379L3.6364 10.2135L11.7598 5.03478ZM9.4799 12.2035L10.2972 11.6796L5.09894 3.56872L4.28159 4.09256L9.4799 12.2035ZM2.55783 10.3277L2.81906 10.7374L10.9424 5.55861L10.6812 5.14885L2.55783 10.3277ZM1.50131 7.43834C1.66151 8.57426 2.09264 9.59797 2.55784 10.3277L10.6812 5.14885C10.8207 5.3677 10.8875 5.52592 10.9205 5.61275C10.9576 5.71053 11.009 5.86886 11.0407 6.09299L1.50131 7.43834ZM4.02708 1.50055C1.17571 3.44718 1.37512 6.54357 1.50131 7.43834L11.0407 6.09299C11.07 6.30094 11.1128 6.76097 10.9534 7.35615C10.7699 8.04135 10.3161 8.87175 9.45891 9.45695L4.02708 1.50055ZM2.86165 2.62901C2.93619 2.52522 3.02116 2.41753 3.1162 2.30879L10.3698 8.6487C10.4751 8.52825 10.5808 8.39583 10.6862 8.24906L2.86165 2.62901ZM2.64841 2.96503C2.665 2.93443 2.68776 2.89407 2.71781 2.84496C2.74587 2.79911 2.79373 2.72356 2.86163 2.62902L10.6862 8.24905C10.874 7.98769 11.0187 7.73906 11.1184 7.55497L2.64841 2.96503ZM2.55942 3.14912C2.57729 3.10775 2.59266 3.07486 2.60512 3.04924C2.61783 3.02311 2.63198 2.99535 2.64843 2.965L11.1184 7.55501C11.223 7.362 11.3197 7.16296 11.4029 6.97029L2.55942 3.14912ZM2.45967 3.40847C2.4595 3.40898 2.46208 3.40145 2.46537 3.39201C2.46877 3.38225 2.47271 3.37103 2.47714 3.35869C2.48606 3.33375 2.4954 3.30844 2.50513 3.28296C2.52457 3.23202 2.54291 3.18731 2.55943 3.14909L11.4029 6.97032C11.4849 6.78059 11.5386 6.63217 11.5716 6.5361L2.45967 3.40847ZM2.3682 6.21546C2.26179 5.82558 2.1843 5.34443 2.20316 4.7966C2.22107 4.27624 2.33001 3.85475 2.32091 3.89436L11.7103 6.05021C11.7026 6.08392 11.813 5.65626 11.8312 5.12802C11.8503 4.57232 11.7719 4.08159 11.662 3.679L2.3682 6.21546ZM2.97808 7.55194C2.8199 7.31985 2.54572 6.86584 2.36825 6.21565L11.662 3.67881C11.4749 2.99357 11.1733 2.47048 10.9389 2.1266L2.97808 7.55194ZM3.15616 7.81243C3.20451 7.85979 3.23626 7.89117 3.25942 7.91441C3.28273 7.93781 3.28564 7.94125 3.2766 7.93162C3.26788 7.92231 3.23394 7.88587 3.1862 7.82862C3.13833 7.77123 3.06363 7.67748 2.9781 7.55197L10.9389 2.12657C10.5305 1.52737 10.0021 1.03275 9.89757 0.930392L3.15616 7.81243ZM1.68584 5.25286C1.80242 5.70664 2.13994 6.81699 3.15618 7.81245L9.89755 0.930373C10.6917 1.70826 10.9404 2.55904 11.0166 2.85573L1.68584 5.25286ZM1.5041 3.98473C1.51431 4.25285 1.54718 4.71312 1.68584 5.25286L11.0166 2.85573C11.1108 3.2224 11.1266 3.50627 11.1309 3.61834L1.5041 3.98473ZM1.57018 2.67653C1.53396 2.96348 1.48352 3.44414 1.50411 3.98485L11.1309 3.61822C11.1359 3.74937 11.1308 3.83757 11.129 3.86568C11.1269 3.89776 11.1252 3.90574 11.1281 3.88278L1.57018 2.67653ZM1.89339 0.946264C1.78353 1.42219 1.64781 2.06142 1.57018 2.67651L11.1281 3.8828C11.1441 3.75629 11.1927 3.49251 11.2803 3.11301L1.89339 0.946264ZM2.22906 -0.387305C2.13606 -0.0429447 2.01072 0.437941 1.89339 0.946253L11.2803 3.11302C11.3618 2.75992 11.4547 2.40195 11.5296 2.12454L2.22906 -0.387305ZM2.34637 -0.81277C2.31691 -0.708235 2.2763 -0.562219 2.22906 -0.387309L11.5296 2.12454C11.5664 1.98807 11.5976 1.87601 11.6191 1.7999L2.34637 -0.81277ZM2.37881 -0.927086L2.34899 -0.822039L11.6164 1.80917L11.6463 1.70413L2.37881 -0.927086ZM2.39117 -0.970155L2.38312 -0.942163L11.642 1.7192L11.65 1.69121L2.39117 -0.970155ZM2.39537 -0.984693L2.39323 -0.977321L11.6479 1.69838L11.6501 1.69101L2.39537 -0.984693ZM8.97581 -4.60401C6.11723 -5.43923 3.20216 -3.76063 2.39725 -0.991187L11.6482 1.6975C10.9932 3.95122 8.61818 5.32804 6.27397 4.6431L8.97581 -4.60401ZM12.5804 1.96669C13.394 -0.833176 11.7938 -3.78063 8.97581 -4.60401L6.27396 4.6431C3.9703 3.97001 2.66555 1.56247 3.32933 -0.721678L12.5804 1.96669Z" fill="black" mask="url(#path-2-inside-1_181_2714)"/>
</svg>
