<svg width="33" height="50" viewBox="0 0 33 50" fill="none" xmlns="http://www.w3.org/2000/svg">
<path d="M7.10313 25H4.85078C3.97638 25 3.12801 24.7024 2.44522 24.1562V24.1562C1.53175 23.4254 1 22.319 1 21.1492V4.73698C1 4.27139 1.21258 3.83129 1.57727 3.54185V3.54185C2.13277 3.10098 2.9188 3.10098 3.4743 3.54185V3.54185C3.83898 3.83129 4.05156 4.27139 4.05156 4.73698V14.9742C4.05156 15.8169 4.73468 16.5 5.57735 16.5V16.5C6.42001 16.5 7.10313 15.8169 7.10313 14.9742V4.73698C7.10313 4.27139 7.31571 3.83129 7.6804 3.54185V3.54185C8.23589 3.10098 9.02193 3.10098 9.57742 3.54185V3.54185C9.94211 3.83129 10.1547 4.27139 10.1547 4.73698V14.9742C10.1547 15.8169 10.8378 16.5 11.6805 16.5V16.5C12.5231 16.5 13.2063 15.8169 13.2063 14.9742V4.73698C13.2063 4.27139 13.4188 3.83129 13.7835 3.54185V3.54185C14.339 3.10098 15.1251 3.10098 15.6806 3.54185V3.54185C16.0452 3.83129 16.2578 4.27139 16.2578 4.73698V20.9177C16.2578 22.2257 15.631 23.4545 14.5722 24.2225V24.2225C13.8753 24.7278 13.0364 25 12.1756 25H10.1547M7.10313 25L3.38934 41.7814C2.8739 44.1104 3.91019 46.5075 5.95998 47.7277V47.7277C7.61748 48.7143 9.66931 48.7658 11.3743 47.8637L11.4828 47.8063C13.8351 46.5617 15.0255 43.8652 14.3602 41.2885L10.1547 25M7.10313 25H10.1547" stroke="black" stroke-width="1.5"/>
<path d="M21 12.2127C21 4.99085 27.4103 1.67343 30.2308 1.01689C30.62 0.961927 31 1.00486 31 1.70818V24.6869C31 25.7374 29.9744 26 29.4615 26H24.8462C21.7692 26 21 23.3739 21 22.0608V12.2127Z" stroke="black" stroke-width="1.5"/>
<path d="M21.7563 41.8973L25.1765 26H28L31.9784 41.4463C32.581 43.7859 31.5373 46.2386 29.4336 47.4265L29.3416 47.4784C27.6828 48.4151 25.643 48.3622 24.035 47.3407C22.2111 46.182 21.3018 44.0099 21.7563 41.8973Z" stroke="black" stroke-width="1.5"/>
</svg>
