<svg width="18" height="20" viewBox="0 0 18 20" fill="none" xmlns="http://www.w3.org/2000/svg">
<path d="M9.05272 0.000110866C10.3129 0.000110866 11.4702 0.527482 12.3395 1.49284C13.2087 2.45373 13.7334 3.84366 13.7334 5.35874C13.7334 6.96767 13.111 8.37548 12.1389 9.35872L11.4445 10.0291L12.4526 10.2347C15.1427 10.7665 16.4338 11.8838 17.1719 13.5956C17.8766 15.1911 17.9743 17.3855 18 20H2.43926e-09C0.0102872 17.3766 0.025718 15.1151 0.668667 13.4972C1.35791 11.7364 2.61809 10.6235 5.50364 10.1274L6.52722 9.96207L5.8637 9.2604C4.95328 8.28163 4.38234 6.90957 4.38234 5.3498C4.38234 3.83473 4.91213 2.44926 5.7814 1.49284C6.64552 0.523013 7.80283 -0.00882763 9.05272 0.000110866Z" fill="black"/>
</svg>
