<svg width="44" height="36" viewBox="0 0 44 36" fill="none" xmlns="http://www.w3.org/2000/svg">
<path d="M39.0967 8.91406C40.7959 7.63965 42.3252 6.11035 43.5146 4.32617C41.9854 5.00586 40.2012 5.51562 38.417 5.68555C40.2861 4.58105 41.6455 2.88184 42.3252 0.757812C40.626 1.77734 38.6719 2.54199 36.7178 2.9668C35.0186 1.18262 32.7246 0.163086 30.1758 0.163086C25.248 0.163086 21.2549 4.15625 21.2549 9.08398C21.2549 9.76367 21.3398 10.4434 21.5098 11.123C14.1182 10.6982 7.49121 7.12988 3.07324 1.77734C2.30859 3.05176 1.88379 4.58105 1.88379 6.28027C1.88379 9.33887 3.41309 12.0576 5.87695 13.6719C4.43262 13.5869 2.98828 13.2471 1.79883 12.5674V12.6523C1.79883 16.9854 4.85742 20.5537 8.93555 21.4033C8.25586 21.5732 7.40625 21.7432 6.6416 21.7432C6.04688 21.7432 5.53711 21.6582 4.94238 21.5732C6.04688 25.1416 9.36035 27.6904 13.2686 27.7754C10.21 30.1543 6.38672 31.5986 2.22363 31.5986C1.45898 31.5986 0.779297 31.5137 0.0996094 31.4287C4.00781 33.9775 8.68066 35.4219 13.7783 35.4219C30.1758 35.4219 39.0967 21.9131 39.0967 10.1035C39.0967 9.67871 39.0967 9.33887 39.0967 8.91406Z" fill="#F5F5F5"/>
</svg>
