<svg width="28" height="14" viewBox="0 0 28 14" fill="none" xmlns="http://www.w3.org/2000/svg">
<path fill-rule="evenodd" clip-rule="evenodd" d="M0 6.80001C-3.078e-08 6.09584 0.570837 5.52501 1.275 5.52501L22.6782 5.52501L19.1074 2.20932C18.5914 1.73017 18.5615 0.923437 19.0407 0.40743C19.5198 -0.108576 20.3266 -0.138455 20.8426 0.340693L26.7926 5.86569C27.0524 6.10694 27.2 6.44547 27.2 6.80001C27.2 7.15454 27.0524 7.49307 26.7926 7.73432L20.8426 13.2593C20.3266 13.7385 19.5198 13.7086 19.0407 13.1926C18.5615 12.6766 18.5914 11.8698 19.1074 11.3907L22.6782 8.07501L1.275 8.07501C0.570837 8.07501 3.078e-08 7.50417 0 6.80001Z" fill="black"/>
</svg>
