<svg width="39" height="39" viewBox="0 0 39 39" fill="none" xmlns="http://www.w3.org/2000/svg">
<path d="M19.9741 9.97998C14.5366 9.97998 10.2036 14.3979 10.2036 19.7505C10.2036 25.188 14.5366 29.521 19.9741 29.521C25.3267 29.521 29.7446 25.188 29.7446 19.7505C29.7446 14.3979 25.3267 9.97998 19.9741 9.97998ZM19.9741 26.1226C16.4907 26.1226 13.6021 23.3188 13.6021 19.7505C13.6021 16.2671 16.4058 13.4634 19.9741 13.4634C23.4575 13.4634 26.2612 16.2671 26.2612 19.7505C26.2612 23.3188 23.4575 26.1226 19.9741 26.1226ZM32.3784 9.64014C32.3784 8.36572 31.3589 7.34619 30.0845 7.34619C28.8101 7.34619 27.7905 8.36572 27.7905 9.64014C27.7905 10.9146 28.8101 11.9341 30.0845 11.9341C31.3589 11.9341 32.3784 10.9146 32.3784 9.64014ZM38.8354 11.9341C38.6655 8.87549 37.9858 6.15674 35.7769 3.94775C33.5679 1.73877 30.8491 1.05908 27.7905 0.88916C24.647 0.719238 15.2163 0.719238 12.0728 0.88916C9.01416 1.05908 6.38037 1.73877 4.08643 3.94775C1.87744 6.15674 1.19775 8.87549 1.02783 11.9341C0.85791 15.0776 0.85791 24.5083 1.02783 27.6519C1.19775 30.7104 1.87744 33.3442 4.08643 35.6382C6.38037 37.8472 9.01416 38.5269 12.0728 38.6968C15.2163 38.8667 24.647 38.8667 27.7905 38.6968C30.8491 38.5269 33.5679 37.8472 35.7769 35.6382C37.9858 33.3442 38.6655 30.7104 38.8354 27.6519C39.0054 24.5083 39.0054 15.0776 38.8354 11.9341ZM34.7573 30.9653C34.1626 32.6646 32.8032 33.939 31.189 34.6187C28.6401 35.6382 22.6929 35.3833 19.9741 35.3833C17.1704 35.3833 11.2231 35.6382 8.75928 34.6187C7.06006 33.939 5.78564 32.6646 5.10596 30.9653C4.08643 28.5015 4.34131 22.5542 4.34131 19.7505C4.34131 17.0317 4.08643 11.0845 5.10596 8.53564C5.78564 6.92139 7.06006 5.64697 8.75928 4.96729C11.2231 3.94775 17.1704 4.20264 19.9741 4.20264C22.6929 4.20264 28.6401 3.94775 31.189 4.96729C32.8032 5.56201 34.0776 6.92139 34.7573 8.53564C35.7769 11.0845 35.522 17.0317 35.522 19.7505C35.522 22.5542 35.7769 28.5015 34.7573 30.9653Z" fill="#F5F5F5"/>
</svg>
