<svg width="49" height="49" viewBox="0 0 49 49" fill="none" xmlns="http://www.w3.org/2000/svg">
<path d="M5.19874 0C0.883356 0.0418771 -2.91622 5.96697 3.1723 7.37343C13.7784 9.82477 22.0517 16.1676 28.4967 26.0751C29.3342 27.74 29.9675 29.3946 29.6509 31.0595C29.2015 32.6835 29.1095 34.328 29.324 35.7477C29.7428 38.3012 31.0093 41.0794 33.1849 43.449C35.3502 45.8186 37.9752 47.3099 40.4776 47.9431C42.98 48.5662 45.4824 48.3823 47.1575 46.8502C48.8428 45.3079 49.0573 42.9485 48.4751 40.5483C47.8929 38.148 46.4323 35.5639 44.2874 33.2249C42.1425 30.8757 39.7014 29.1904 37.3624 28.3937C36.5248 28.1077 35.6771 27.9238 34.8702 27.883C33.4811 27.3212 32.4597 26.1364 31.5404 24.7677C25.8615 13.7265 17.4248 6.50933 7.5888 0.648584C6.8105 0.261476 5.94027 0 5.19874 0ZM31.2647 32.2239C33.7773 38.5361 38.7515 43.5409 44.2976 46.268C43.4397 46.4213 42.3672 46.3804 41.2028 46.0944C39.0579 45.5531 36.6576 44.2253 34.6863 42.0803C32.715 39.9252 31.5507 37.3411 31.1932 35.1451C31.091 34.1543 31.0604 33.0921 31.2647 32.2239Z" fill="black"/>
</svg>
